<?xml version="1.0" encoding="UTF-8"?>
<svg xmlns="http://www.w3.org/2000/svg" xmlns:xlink="http://www.w3.org/1999/xlink" width="24pt" height="24pt" viewBox="0 0 24 24" version="1.1">
<g id="surface1">
<path style=" stroke:none;fill-rule:nonzero;fill:rgb(80%,80%,80%);fill-opacity:1;" d="M 10.953125 23.25 C 10.625 23.25 10.304688 23.164062 10.023438 23 L 2.625 18.773438 C 2.042969 18.441406 1.683594 17.824219 1.679688 17.15625 L 1.613281 7.476562 C 1.609375 6.804688 1.964844 6.183594 2.546875 5.847656 L 10.90625 0.972656 C 11.484375 0.636719 12.199219 0.636719 12.78125 0.972656 L 21.179688 5.753906 C 21.761719 6.085938 22.121094 6.703125 22.125 7.371094 L 22.148438 11.378906 C 22.144531 11.875 21.945312 12.355469 21.589844 12.703125 C 21.226562 13.046875 20.746094 13.238281 20.25 13.242188 L 12.828125 13.242188 L 12.828125 21.375 C 12.832031 22.222656 12.261719 22.96875 11.441406 23.191406 C 11.28125 23.230469 11.117188 23.25 10.953125 23.25 Z M 11.847656 2.582031 L 3.488281 7.460938 L 3.535156 17.144531 L 10.953125 21.375 L 10.953125 11.371094 L 20.277344 11.371094 L 20.25 7.378906 Z M 11.847656 2.582031 "/>
</g>
</svg>
